<svg width="20" height="20" viewBox="0 0 20 20" fill="none" xmlns="http://www.w3.org/2000/svg">
  <path d="M12.5 8.4375C12.5 9.10054 12.2366 9.73643 11.7678 10.2053C11.2989 10.6741 10.663 10.9375 10 10.9375C9.33696 10.9375 8.70107 10.6741 8.23223 10.2053C7.76339 9.73643 7.5 9.10054 7.5 8.4375C7.5 7.77446 7.76339 7.13857 8.23223 6.66973C8.70107 6.20089 9.33696 5.9375 10 5.9375C10.663 5.9375 11.2989 6.20089 11.7678 6.66973C12.2366 7.13857 12.5 7.77446 12.5 8.4375V8.4375Z" stroke="grey" stroke-width="1.5" stroke-linecap="round" stroke-linejoin="round"/>
  <path d="M16.25 8.4375C16.25 14.3892 10 17.8125 10 17.8125C10 17.8125 3.75 14.3892 3.75 8.4375C3.75 6.7799 4.40848 5.19018 5.58058 4.01808C6.75268 2.84598 8.3424 2.1875 10 2.1875C11.6576 2.1875 13.2473 2.84598 14.4194 4.01808C15.5915 5.19018 16.25 6.7799 16.25 8.4375V8.4375Z" stroke="grey" stroke-width="1.5" stroke-linecap="round" stroke-linejoin="round"/>
</svg>